<svg id="Layer_1" enable-background="new 0 0 512 512" viewBox="0 0 512 512" xmlns="http://www.w3.org/2000/svg"><g id="_x33_5_frog_00000180357256759949449490000007707315495439094411_"><g><path d="m512 210.82v210.83h-30.12v30.11h-451.76v-30.11h-30.12v-180.71h30.12v-30.12h30.12v-30.11h30.11v-30.12h60.24v-30.12h30.12v-30.12h30.11v-30.11h90.36v30.11h30.11v-30.11h90.36v30.11h30.11v30.12h30.12v90.35z"/></g><path d="m481.88 210.82v150.59l-30.12 45.18-30.11-15.06v-60.24h-30.12l-45.18 15.06-30.11-60.23-45.18 15.06v90.35l-30.12 15.06-30.12-15.06v-60.24h-30.11v-30.11h-30.12l-30.12 30.11h-30.12v60.24l-30.11 17.43-30.12-47.55v-120.47h30.12v-30.12h30.11v-30.11h60.24v-30.12h30.12l30.11-30.12 45.18-15.06 45.18 15.06 15.05 15.06 15.06-15.06 45.18-15.06 45.18 15.06 30.11 30.12v60.23z" fill="#8fe26a"/><g><g fill="#49a420"><path d="m180.71 391.53h-30.12v-30.12h-30.12v-60.23h30.12v30.11h30.12z"/><path d="m180.71 391.53h120.47v30.12h-120.47z"/><path d="m150.59 391.53v30.12h-120.47v-60.24h30.12v30.12z"/><path d="m481.88 361.41v60.24h-90.35v-30.12h60.23v-30.12z"/></g><g fill="#306c15"><path d="m391.53 120.47v30.12h-30.12v-30.12l15.06-15.06z"/><path d="m271.06 180.71h90.35v30.11h-90.35z"/><path d="m361.41 210.82h30.12v30.12h-30.12z"/><path d="m240.94 210.82h30.12v30.12h-30.12z"/><path d="m271.06 120.47v30.12h-30.12v-30.12l15.06-15.06z"/></g><g fill="#daf5cd"><path d="m180.71 120.47h30.11v30.12h-30.11z"/><path d="m331.29 90.35h90.36v30.12h-90.36z"/><path d="m421.65 120.47h30.11v30.12h-30.11z"/><path d="m301.18 120.47h30.11v30.12h-30.11z"/><path d="m210.82 90.35h90.36v30.12h-90.36z"/></g><path d="m391.53 301.18v90.35h-30.12l-15.06 15.06-15.06-15.06h-30.11v-90.35h-30.12v-30.12h90.35v30.12z" fill="#ffe79b"/><g><path d="m331.29 391.53h30.12v30.12h-30.12z" fill="#daac5c"/></g></g></g><g/><g/><g/><g/><g/><g/><g/><g/><g/><g/><g/><g/><g/><g/><g/></svg>